# xmcd
#
# Track frame offsets:
#	150
#	7246
#	14689
#	24571
#	35398
#	45841
#	55780
#	65453
#	81505
#	94718
#	105503
#	116918
#	128398
#	136939
#	147097
#	156749
#	164686
#	172270
#	185572
#	196027
#
# Disc length: 2732 seconds
#
# Revision: 1
# Processed by: cddbd v1.5.1PL2 Copyright (c) Steve Scherf et al.
# Submitted via: audiograbber 1.83.01
#
DISCID=170aaa14
DTITLE=Smoky Mountain Choir/Roy Clark - Hymns form the Old Country Church 1
DYEAR=1900
DGENRE=Religious
TTITLE0=Old Time Religion
TTITLE1=Are You Washed in the Blood
TTITLE2=In The Sweet By 'n By
TTITLE3=He Keeps Me Singing as I Go
TTITLE4=Gloryland Way
TTITLE5=Down At the Cross
TTITLE6=When the Saints Go Marching In
TTITLE7=Where Could I Go
TTITLE8=The Old Account Was Settled Long Ago
TTITLE9=This Is My Father's World
TTITLE10=Unclouded Day
TTITLE11=We Shall Rise
TTITLE12=Tell It To Jesus
TTITLE13=Shall We Gather At The River
TTITLE14=Leaning on the Everlasting Arms
TTITLE15=At Calvary
TTITLE16=Peace Like A River
TTITLE17=There is A Fountain
TTITLE18=Savior Like A Shepherd Lead Us
TTITLE19=At The Cross
EXTD=
EXTT0=
EXTT1=
EXTT2=
EXTT3=
EXTT4=
EXTT5=
EXTT6=
EXTT7=
EXTT8=
EXTT9=
EXTT10=
EXTT11=
EXTT12=
EXTT13=
EXTT14=
EXTT15=
EXTT16=
EXTT17=
EXTT18=
EXTT19=
PLAYORDER=
